<?xml version="1.0" encoding="UTF-8"?>
<svg width="1689px" height="262px" viewBox="0 0 1689 262" version="1.1" xmlns="http://www.w3.org/2000/svg" xmlns:xlink="http://www.w3.org/1999/xlink">
    <!-- Generator: Sketch 53.2 (72643) - https://sketchapp.com -->
    <title>CB-LOGO-Primary-RGB-KO</title>
    <desc>Created with Sketch.</desc>
    <defs>
        <polygon id="path-1" points="0.06 0.664 298.855 0.664 298.855 188 0.06 188"></polygon>
    </defs>
    <g id="CB-LOGO-Primary-RGB-KO" stroke="none" stroke-width="1" fill="none" fill-rule="evenodd">
        <polyline id="Fill-1" fill="#FFFFFE" points="1674.11 168.053 1645.44 168.036 1631.09 192.854 1645.41 217.688 1674.08 217.704 1688.42 192.887 1674.11 168.053"></polyline>
        <path d="M1613.72,81.297 L1577.96,81.297 L1552.98,124.432 C1550,129.057 1548.76,131.704 1541.66,132.08 L1524.51,132.08 L1524.51,36.617 L1492.4,36.617 L1492.4,217.71 L1524.51,217.71 L1524.51,161.23 L1538.59,161.23 C1545.39,161.589 1546.69,164.032 1549.4,168.291 L1577.84,217.704 L1613.72,217.71 L1574.39,149.455 L1613.72,81.297" id="Fill-2" fill="#FFFFFE"></path>
        <path d="M1469.04,94.065 C1464.12,90.167 1458.72,86.906 1452.84,84.282 C1443.98,80.339 1434.55,78.364 1424.55,78.364 C1411.57,78.364 1399.46,81.611 1388.23,88.104 C1377,94.597 1368.05,103.282 1361.38,114.158 C1354.71,125.041 1351.38,136.79 1351.38,149.425 C1351.38,162.06 1354.71,173.862 1361.38,184.827 C1368.05,195.791 1376.95,204.524 1388.1,211.01 C1399.24,217.503 1411.21,220.75 1424.03,220.75 C1434.55,220.75 1444.29,218.735 1453.24,214.696 C1459.04,212.085 1464.39,208.809 1469.3,204.869 L1454.84,179.778 C1454.84,179.777 1454.83,179.771 1454.83,179.77 C1454.82,179.759 1454.81,179.755 1454.81,179.759 C1451.06,183.868 1446.54,187.134 1441.26,189.562 C1435.74,192.105 1430.07,193.376 1424.28,193.376 C1416.92,193.376 1410.08,191.408 1403.76,187.458 C1397.44,183.508 1392.44,178.157 1388.76,171.401 C1385.07,164.651 1383.23,157.319 1383.23,149.425 C1383.23,141.707 1385.07,134.47 1388.76,127.713 C1392.44,120.956 1397.44,115.606 1403.76,111.656 C1410.08,107.706 1416.92,105.737 1424.28,105.737 C1429.9,105.737 1435.43,106.962 1440.87,109.417 C1446.27,111.861 1450.8,115.161 1454.48,119.332 L1465.58,100.131 L1469.04,94.065" id="Fill-3" fill="#FFFFFE"></path>
        <path d="M1285.32,191.48 C1278.39,195.518 1270.8,197.533 1262.56,197.533 C1254.84,197.533 1248.48,195.606 1243.48,191.743 C1238.48,187.888 1235.97,182.795 1235.97,176.478 C1235.97,170.16 1238.78,164.945 1244.4,160.82 C1250.01,156.7 1256.85,155.015 1264.93,155.015 L1297.55,155.015 L1297.55,171.023 C1297.55,178.772 1292.25,187.448 1285.32,191.48 Z M1271.25,78.32 C1254.53,78.32 1236.61,83.228 1217.48,92.561 C1217.33,92.634 1215.77,93.481 1215.62,93.555 L1228.08,115.156 C1241.76,108.311 1254.04,104.889 1264.93,104.889 C1276.51,104.889 1284.97,107.872 1290.33,113.838 C1294.91,118.948 1296.8,125.1 1297.46,132.273 L1263.76,132.273 C1262.16,132.262 1260.92,132.262 1260.19,132.262 C1260.11,132.262 1260.04,132.273 1259.97,132.273 L1258.77,132.273 L1258.77,132.33 C1249.15,132.503 1240.31,134.38 1232.29,138.052 C1223.87,141.914 1217.16,147.265 1212.16,154.11 C1207.15,160.947 1204.65,168.76 1204.65,177.532 C1204.65,186.13 1206.85,193.719 1211.24,200.3 C1215.62,206.874 1221.67,211.968 1229.4,215.559 C1237.11,219.157 1245.8,220.957 1255.45,220.957 C1263.52,220.957 1271.46,219.245 1279.27,215.823 C1286.7,212.57 1292.59,208.186 1297.64,202.352 C1297.65,202.339 1297.63,217.653 1297.63,217.653 L1329.67,217.653 L1329.67,135.948 C1329.67,118.572 1324.41,104.673 1313.88,94.229 C1303.35,83.793 1289.14,78.32 1271.25,78.32 L1271.25,78.32 Z" id="Fill-4" fill="#FFFFFE"></path>
        <polygon id="Fill-5" fill="#FFFFFE" points="1148.65 217.695 1180.76 217.695 1180.76 36.602 1148.65 36.602"></polygon>
        <path d="M1081.2,181.826 C1075.49,186.65 1068.17,189.064 1059.22,189.064 L1006.32,189.064 L1006.32,137.476 L1059.22,137.476 C1068.17,137.476 1075.49,139.891 1081.2,144.713 C1086.89,149.542 1089.75,155.725 1089.75,163.267 C1089.75,170.815 1086.89,176.997 1081.2,181.826 Z M1006.32,65.096 L1054.48,65.096 C1062.55,65.096 1069.18,67.186 1074.35,71.368 C1079.53,75.549 1082.12,80.874 1082.12,87.356 C1082.12,93.667 1079.53,98.907 1074.35,103.088 C1069.18,107.269 1062.55,109.353 1054.48,109.353 L1006.32,109.353 L1006.32,65.096 Z M1090.28,121.946 C1107.29,112.828 1115.81,99.49 1115.81,81.944 C1115.81,73.348 1113.52,65.583 1108.96,58.65 C1104.4,51.717 1098.08,46.326 1090.01,42.464 C1081.94,38.602 1072.73,36.674 1062.38,36.674 L974.244,36.674 L974.244,217.695 L1065.8,217.695 C1076.85,217.486 1086.76,215.382 1095.54,211.168 C1104.31,206.961 1111.16,201.131 1116.07,193.67 C1120.98,186.209 1123.44,177.748 1123.44,168.272 C1123.44,158.444 1120.54,149.542 1114.75,141.555 C1108.96,133.573 1100.8,127.039 1090.28,121.946 L1090.28,121.946 Z" id="Fill-6" fill="#FFFFFE"></path>
        <path d="M851.486,85.073 C843.853,80.603 835.124,78.364 825.3,78.364 C816.523,78.364 808.363,80.298 800.821,84.154 C793.276,88.016 787.398,93.19 783.188,99.684 L783.188,81.279 L751.077,81.279 L751.077,217.695 L783.188,217.695 L783.188,131.528 C784.239,124.156 787.879,118.02 794.109,113.103 C800.334,108.193 807.663,105.737 816.087,105.737 C824.509,105.737 831.394,108.673 836.748,114.55 C842.098,120.435 844.776,128.017 844.776,137.318 L844.776,217.695 L875.833,217.695 L875.833,131 C875.833,120.827 873.682,111.75 869.383,103.762 C865.081,95.781 859.119,89.551 851.486,85.073" id="Fill-7" fill="#FFFFFE"></path>
        <path d="M695.119,171.401 C691.345,178.157 686.303,183.508 679.986,187.458 C673.672,191.408 666.827,193.376 659.457,193.376 C652.088,193.376 645.199,191.408 638.797,187.458 C632.388,183.508 627.302,178.157 623.531,171.401 C619.757,164.651 617.873,157.319 617.873,149.425 C617.873,141.707 619.757,134.47 623.531,127.713 C627.302,120.956 632.388,115.606 638.797,111.656 C645.199,107.706 652.088,105.737 659.457,105.737 C666.827,105.737 673.672,107.706 679.986,111.656 C686.303,115.606 691.345,120.956 695.119,127.713 C698.89,134.47 700.78,141.707 700.78,149.425 C700.78,157.319 698.89,164.651 695.119,171.401 Z M695.647,88.104 C684.503,81.611 672.44,78.364 659.457,78.364 C646.47,78.364 634.41,81.611 623.267,88.104 C612.124,94.597 603.219,103.282 596.554,114.158 C589.884,125.041 586.553,136.79 586.553,149.425 C586.553,162.06 589.884,173.862 596.554,184.827 C603.219,195.791 612.124,204.524 623.267,211.01 C634.41,217.503 646.47,220.75 659.457,220.75 C672.44,220.75 684.503,217.503 695.647,211.01 C706.787,204.524 715.692,195.791 722.361,184.827 C729.026,173.862 732.361,162.06 732.361,149.425 C732.361,136.79 729.026,125.041 722.361,114.158 C715.692,103.282 706.787,94.597 695.647,88.104 L695.647,88.104 Z" id="Fill-8" fill="#FFFFFE"></path>
        <path d="M526.54,181.008 C519.167,189.26 509.779,193.379 498.375,193.379 C487.144,193.379 477.934,189.26 470.742,181.008 C463.544,172.763 459.713,162.238 459.713,149.428 C459.713,136.624 463.544,126.133 470.742,117.976 C477.934,109.819 487.144,105.74 498.375,105.74 C509.779,105.74 519.167,109.819 526.54,117.976 C533.909,126.133 537.592,136.624 537.592,149.428 C537.592,162.238 533.909,172.763 526.54,181.008 Z M539.171,87.444 C529.695,81.39 518.991,78.367 507.063,78.367 C497.059,78.367 488.02,80.518 479.954,84.813 C471.881,89.114 465.124,95.209 459.685,103.109 L459.685,36.606 L427.577,36.606 L427.577,217.699 L459.685,217.699 L459.685,196.011 C465.124,203.911 471.881,210.005 479.954,214.307 C488.02,218.602 497.059,220.753 507.063,220.753 C518.991,220.753 529.695,217.73 539.171,211.676 C548.647,205.622 556.057,197.154 561.411,186.278 C566.761,175.402 569.732,163.112 569.732,149.428 C569.732,135.745 566.761,123.502 561.411,112.714 C556.057,101.919 548.647,93.498 539.171,87.444 L539.171,87.444 Z" id="Fill-9" fill="#FFFFFE"></path>
        <path d="M354.982,103.351 C354.982,98.951 354.982,81.293 354.982,81.293 L322.874,81.293 L322.874,217.699 L354.982,217.699 L354.982,151.827 C354.982,138.847 359.456,128.404 368.405,120.51 C377.354,112.61 389.109,109.584 403.675,109.584 L403.675,81.293 C388.778,81.293 364.59,91.875 354.982,103.351" id="Fill-10" fill="#FFFFFE"></path>
        <g id="Group-14" transform="translate(0.000000, 33.000000)">
            <mask id="mask-2" fill="white">
                <use xlink:href="#path-1"></use>
            </mask>
            <g id="Clip-12"></g>
            <path d="M254.505,158.523 C247.572,162.561 239.983,164.576 231.737,164.576 C224.017,164.576 217.659,162.649 212.657,158.786 C207.658,154.931 205.156,149.838 205.156,143.521 C205.156,137.203 207.963,131.988 213.58,127.862 C219.19,123.743 226.036,122.058 234.109,122.058 L266.732,122.058 L266.732,138.066 C266.732,145.815 261.434,154.491 254.505,158.523 Z M240.426,45.364 C223.711,45.364 205.79,50.271 186.658,59.604 C186.508,59.677 184.95,60.524 184.799,60.598 L197.259,82.199 C210.945,75.355 223.225,71.932 234.109,71.932 C245.688,71.932 254.153,74.915 259.507,80.881 C264.091,85.992 265.979,92.144 266.637,99.316 L232.945,99.316 C231.338,99.305 230.096,99.306 229.371,99.305 C229.295,99.305 229.226,99.316 229.15,99.316 L227.953,99.316 L227.953,99.374 C218.335,99.546 209.495,101.423 201.473,105.095 C193.048,108.957 186.338,114.308 181.337,121.153 C176.335,127.99 173.835,135.803 173.835,144.575 C173.835,153.173 176.027,160.762 180.417,167.343 C184.8,173.917 190.854,179.011 198.578,182.603 C206.295,186.2 214.98,188 224.632,188 C232.702,188 240.642,186.288 248.451,182.866 C255.885,179.612 261.775,175.229 266.82,169.395 C266.831,169.382 266.81,184.695 266.81,184.695 L298.855,184.695 L298.855,102.991 C298.855,85.615 293.59,71.715 283.062,61.272 C272.534,50.836 258.323,45.364 240.426,45.364 L240.426,45.364 Z" id="Fill-11" fill="#FFFFFE" mask="url(#mask-2)"></path>
            <path d="M140.571,137.933 C134.039,144.74 126.002,150.09 116.981,153.424 C105.18,157.784 92.081,158.437 79.868,155.468 C68.834,152.785 58.663,146.824 50.65,138.813 C46.012,134.176 42.099,128.833 39.111,122.993 C36.91,118.691 35.21,114.133 34.057,109.44 C32.866,104.592 32.262,99.603 32.244,94.611 C32.244,94.534 32.244,94.458 32.244,94.381 C32.244,59.627 60.418,31.453 95.172,31.453 C112.789,31.453 128.908,38.873 140.331,50.539 L156.103,23.229 C148.98,17.297 140.758,12.23 132.125,8.429 C120.366,3.255 107.995,0.664 95.016,0.664 C78.17,0.664 62.464,4.918 47.901,13.427 C33.335,21.943 21.715,33.347 13.027,47.646 C4.342,61.944 0,77.427 0,94.1 C0,110.766 4.342,126.296 13.027,140.683 C21.715,155.07 33.335,166.521 47.901,175.029 C62.464,183.545 78.17,187.793 95.016,187.793 C107.995,187.793 120.413,185.202 132.257,180.028 C140.983,176.216 149.143,171.082 156.203,165.029 C156.203,165.029 140.599,137.904 140.571,137.933" id="Fill-13" fill="#FFFFFE" mask="url(#mask-2)"></path>
        </g>
    </g>
</svg>